<svg xmlns="http://www.w3.org/2000/svg" version="1.1" width="500" height="500">
    <svg xmlns="http://www.w3.org/2000/svg" width="500" zoomAndPan="magnify" viewBox="0 0 375 374.999991" height="500"
         preserveAspectRatio="xMidYMid meet" version="1.0"><defs><clipPath id="SvgjsClipPath1000"><path d="M 0 46.941406 L 375 46.941406 L 375 320.691406 L 0 320.691406 Z M 0 46.941406 " clip-rule="nonzero"></path></clipPath></defs><path fill="#fe6b01" d="M 159.660156 172.5 C 159.652344 172.644531 159.652344 172.792969 159.652344 172.9375 L 159.652344 216.601562 L 111.039062 216.601562 C 86.992188 216.601562 64.320312 205.355469 49.777344 186.207031 L 42.0625 176.058594 C 40.953125 174.597656 42 172.496094 43.828125 172.5 L 159.660156 172.5 " fill-opacity="1" fill-rule="nonzero"></path><path fill="#fe6b01" d="M 159.976562 228.335938 C 159.996094 228.628906 160.015625 228.925781 160.042969 229.21875 C 161.289062 244.738281 165.507812 259.25 172.597656 272.441406 L 149.816406 272.441406 C 126.398438 272.4375 104.328125 261.484375 90.167969 242.847656 L 80.917969 230.664062 C 80.195312 229.707031 80.871094 228.335938 82.078125 228.335938 L 159.976562 228.335938 " fill-opacity="1" fill-rule="nonzero"></path><g clip-path="url(#2f5e5f57ac)"><path fill="#fe6b01" d="M 344.875 145.753906 C 324.855469 125.742188 300.691406 115.734375 272.382812 115.734375 L 214.246094 115.734375 C 214.003906 115.734375 213.804688 115.539062 213.804688 115.292969 L 213.804688 47.394531 C 213.804688 47.148438 213.609375 46.949219 213.363281 46.949219 L 170.308594 46.949219 C 170.066406 46.949219 169.867188 47.148438 169.867188 47.394531 L 169.867188 115.292969 C 169.867188 115.539062 169.671875 115.734375 169.429688 115.734375 L 3.769531 115.734375 C 1.421875 115.734375 0.0898438 118.421875 1.507812 120.292969 L 17.484375 141.320312 C 26.339844 152.984375 40.152344 159.839844 54.804688 159.839844 L 267.71875 159.839844 C 269.253906 159.726562 270.804688 159.671875 272.382812 159.671875 C 285.839844 159.671875 297.644531 163.605469 307.796875 171.480469 C 307.875 171.539062 313.550781 176.523438 313.828125 176.796875 C 325.246094 188.222656 330.964844 202.042969 330.964844 218.242188 C 330.964844 221.394531 330.75 224.441406 330.316406 227.410156 C 328.535156 239.730469 323.035156 250.484375 313.828125 259.6875 C 308.761719 264.757812 303.226562 268.699219 297.21875 271.511719 C 289.679688 275.054688 281.402344 276.824219 272.382812 276.824219 C 263.367188 276.824219 255.089844 275.054688 247.550781 271.511719 C 241.542969 268.699219 236.007812 264.757812 230.9375 259.6875 C 221.726562 250.484375 216.230469 239.730469 214.453125 227.410156 C 214.019531 224.441406 213.804688 221.394531 213.804688 218.242188 C 213.804688 217.378906 213.820312 216.527344 213.859375 215.675781 C 214.433594 200.578125 220.121094 187.617188 230.9375 176.796875 L 230.996094 176.742188 C 232.910156 174.832031 231.59375 171.570312 228.890625 171.570312 L 170.308594 171.570312 C 170.066406 171.570312 169.867188 171.769531 169.867188 172.011719 L 169.867188 218.242188 C 169.867188 221.351562 169.988281 224.398438 170.226562 227.410156 C 171.523438 243.554688 176.289062 258.25 184.523438 271.511719 C 188.734375 278.292969 193.855469 284.710938 199.886719 290.742188 C 219.90625 310.75 244.066406 320.761719 272.382812 320.761719 C 300.691406 320.761719 324.855469 310.75 344.875 290.742188 C 364.882812 270.722656 374.894531 246.558594 374.894531 218.242188 C 374.894531 189.933594 364.882812 165.769531 344.875 145.753906 " fill-opacity="1" fill-rule="nonzero"></path></g></svg><style>@media (prefers-color-scheme: light) { :root { filter: none; } }
</style></svg>
